<svg xmlns="http://www.w3.org/2000/svg" width="206.862" height="63.926" viewBox="0 0 206.862 63.926"><g transform="translate(-192.833 -647)"><path d="M217.786,763.752c0,6.012-4.819,10.83-12.262,10.83H199.99v8.35a3.579,3.579,0,1,1-7.157,0V756.738a3.835,3.835,0,0,1,3.96-3.96h8.731C212.967,752.778,217.786,757.74,217.786,763.752Zm-6.966,0c0-3.721-2.529-4.867-5.678-4.867H199.99v9.59h5.153C208.291,768.475,210.82,767.473,210.82,763.752Z" transform="translate(0 -75.631)" fill="#fff"/><path d="M299.767,784.739a3.462,3.462,0,0,1-3.483-3.435V753.918a3.483,3.483,0,0,1,6.966,0V781.3A3.462,3.462,0,0,1,299.767,784.739Z" transform="translate(-73.967 -73.956)" fill="#fff"/><path d="M362.606,785.484v18.369a3.534,3.534,0,0,1-3.531,3.435,3.453,3.453,0,0,1-3.483-3.387c-.573,1.336-2.863,3.435-6.632,3.435-5.248,0-11.5-4.056-11.5-12.739,0-8.493,6.3-12.691,11.5-12.691,3.292,0,5.821,1.813,6.632,3.769v-.191a3.493,3.493,0,0,1,3.483-3.435A3.567,3.567,0,0,1,362.606,785.484Zm-6.727,9.113c0-5.01-3.244-6.727-5.63-6.727-2.91,0-5.821,2.29-5.821,6.727,0,4.485,2.91,6.775,5.821,6.775C352.634,801.372,355.878,799.655,355.878,794.6Z" transform="translate(-103.409 -96.457)" fill="#fff"/><path d="M469.623,793.668v10.258a3.483,3.483,0,0,1-6.966,0V793.668c0-3.96-1.956-5.678-4.58-5.678-4.1,0-5.248,4.008-5.344,4.914v11.021a3.483,3.483,0,0,1-6.965,0V785.7a3.483,3.483,0,1,1,6.965,0v1.909c.191-1.765,2.911-5.534,7.968-5.534C465.568,782.074,469.623,785.366,469.623,793.668Z" transform="translate(-180.847 -96.577)" fill="#fff"/><path d="M557.835,788.007c0,2.385-2.1,3.674-5.677,3.674-3.435,0-7.014-1.1-7.014-8.349v-11.26H544a2.721,2.721,0,1,1,0-5.439h1.145v-3.006a3.483,3.483,0,0,1,6.966,0v3.006h2.958a2.72,2.72,0,1,1,0,5.439H552.11v11.5c0,1.384.429,2.1,1.431,2.1.477,0,1.288-.191,1.813-.143A2.26,2.26,0,0,1,557.835,788.007Z" transform="translate(-249.07 -80.897)" fill="#fff"/><path d="M644.722,771.692c-.382,9.352-7.538,13.979-14.742,13.979a17.033,17.033,0,0,1-.143-34.066,15.9,15.9,0,0,1,7.729,1.861c1.908,1.24,3.2,2.433,3.2,4.246a3.168,3.168,0,0,1-3.34,3.2,4.876,4.876,0,0,1-2.767-1,8.4,8.4,0,0,0-4.723-1.527c-5.105,0-9.4,4.533-9.4,10.258s4.247,10.258,9.447,10.258c3.149,0,7.156-1.956,7.729-5.773h-4.628a3.034,3.034,0,0,1-3.1-2.958,3,3,0,0,1,3.1-2.911h7.729C643.529,767.255,644.817,769.116,644.722,771.692Z" transform="translate(-300.413 -74.793)" fill="#fff"/><path d="M763.875,794.693c0,8.54-7.4,12.643-12.834,12.643-5.487,0-12.834-4.1-12.834-12.643,0-8.493,7.347-12.787,12.834-12.787C756.48,781.906,763.875,786.2,763.875,794.693Zm-18.8,0c0,4.008,2.767,6.584,5.964,6.584,3.149,0,5.916-2.576,5.916-6.584,0-4.151-2.767-6.727-5.916-6.727C747.844,787.966,745.077,790.542,745.077,794.693Z" transform="translate(-389.94 -96.457)" fill="#fff"/><path d="M845.005,846.8a3.984,3.984,0,0,1,7.968,0,3.984,3.984,0,1,1-7.968,0Z" transform="translate(-466.3 -140.025)" fill="#fff"/><path d="M844.309,699.646a2.411,2.411,0,0,1,2.767.2c.422-1.014,1.036-3.229,1.036-7.532,0-3.278-1.995-8.764-3.99-13.431a29.982,29.982,0,0,1-1.664-18.554L845.547,647l-4.813,14.1a25.07,25.07,0,0,0,.575,17.732c2,4.817,4.092,10.429,4.238,13.2A16.875,16.875,0,0,1,844.309,699.646Z" transform="translate(-462.283)" fill="#fff"/><path d="M844.409,692.124c.833-.255,1.662-.526,2.5-.762a13.6,13.6,0,0,1,2.41-.407.311.311,0,0,0,.184-.11,7.014,7.014,0,0,1,7.064-2.329,7.308,7.308,0,0,1,2.157.961,26.117,26.117,0,0,1,2.844,2.035,25.22,25.22,0,0,1,2.058,1.9,24.207,24.207,0,0,1,1.869,2.163.407.407,0,0,1,.073.127l-.287-.255a3.652,3.652,0,0,0-3.341-.892c-.684.143-1.353.357-2.025.552a15.357,15.357,0,0,1-2.8.572,6.911,6.911,0,0,1-3.5-.477,7.758,7.758,0,0,1-1.954-1.281,19.86,19.86,0,0,1-2.089-2.216c-.022-.025-.039-.055-.071-.1.093-.023.177-.048.263-.064a16.778,16.778,0,0,1,2.745-.3,20.312,20.312,0,0,1,2.873.126,20.724,20.724,0,0,1,4.168.892c.3.1.6.2.906.282-.222-.09-.443-.182-.666-.269a19.64,19.64,0,0,0-6.922-1.351,20.232,20.232,0,0,0-3.413.247,19.678,19.678,0,0,0-3,.7c-.456.147-.907.31-1.363.461a.356.356,0,0,1-.191.009c-.165-.043-.327-.1-.491-.151Z" transform="translate(-465.874 -29.535)" fill="#fff"/></g></svg>