<svg xmlns="http://www.w3.org/2000/svg" width="213.429" height="65.956" viewBox="0 0 213.429 65.956">
  <g id="Group_8" data-name="Group 8" transform="translate(-192.833 -647)">
    <path id="Path_1" data-name="Path 1" d="M218.578,764.1c0,6.2-4.972,11.174-12.651,11.174h-5.71v8.615a3.692,3.692,0,1,1-7.384,0V756.864a3.957,3.957,0,0,1,4.086-4.086h9.008C213.606,752.778,218.578,757.9,218.578,764.1Zm-7.187,0c0-3.839-2.609-5.021-5.858-5.021h-5.316v9.894h5.316C208.782,768.973,211.391,767.94,211.391,764.1Z" transform="translate(0 -74.674)" fill="#746e6e"/>
    <path id="Path_2" data-name="Path 2" d="M299.877,785.828a3.572,3.572,0,0,1-3.593-3.544V754.028a3.593,3.593,0,0,1,7.187,0v28.256A3.572,3.572,0,0,1,299.877,785.828Z" transform="translate(-73.031 -73.02)" fill="#746e6e"/>
    <path id="Path_3" data-name="Path 3" d="M363.4,785.6V804.55a3.647,3.647,0,0,1-3.643,3.544,3.562,3.562,0,0,1-3.594-3.495c-.591,1.378-2.953,3.544-6.842,3.544-5.415,0-11.863-4.185-11.863-13.143,0-8.762,6.5-13.094,11.863-13.094,3.4,0,6.005,1.871,6.842,3.889v-.2a3.6,3.6,0,0,1,3.594-3.544A3.681,3.681,0,0,1,363.4,785.6Zm-6.941,9.4c0-5.169-3.347-6.941-5.809-6.941-3,0-6.005,2.363-6.005,6.941,0,4.627,3,6.99,6.005,6.99C353.116,801.99,356.463,800.218,356.463,795Z" transform="translate(-102.1 -95.237)" fill="#746e6e"/>
    <path id="Path_4" data-name="Path 4" d="M470.381,794.036v10.583a3.594,3.594,0,0,1-7.187,0V794.036c0-4.086-2.018-5.858-4.725-5.858-4.234,0-5.415,4.135-5.514,5.07v11.371a3.594,3.594,0,0,1-7.187,0v-18.8a3.594,3.594,0,1,1,7.187,0v1.969c.2-1.821,3-5.71,8.221-5.71C466.2,782.074,470.381,785.471,470.381,794.036Z" transform="translate(-178.559 -95.355)" fill="#746e6e"/>
    <path id="Path_5" data-name="Path 5" d="M558.364,788.892c0,2.461-2.166,3.79-5.858,3.79-3.545,0-7.236-1.132-7.236-8.615V772.45h-1.181a2.808,2.808,0,1,1,0-5.612h1.181v-3.1a3.594,3.594,0,0,1,7.187,0v3.1h3.052a2.806,2.806,0,1,1,0,5.612h-3.052v11.863c0,1.428.442,2.166,1.476,2.166.492,0,1.329-.2,1.87-.148A2.332,2.332,0,0,1,558.364,788.892Z" transform="translate(-245.918 -79.874)" fill="#746e6e"/>
    <path id="Path_6" data-name="Path 6" d="M645.729,772.33c-.394,9.648-7.777,14.423-15.211,14.423a17.574,17.574,0,0,1-.148-35.147,16.4,16.4,0,0,1,7.975,1.92c1.969,1.28,3.3,2.51,3.3,4.381a3.268,3.268,0,0,1-3.446,3.3,5.03,5.03,0,0,1-2.855-1.034,8.674,8.674,0,0,0-4.873-1.575c-5.267,0-9.7,4.677-9.7,10.584s4.381,10.583,9.747,10.583c3.249,0,7.384-2.018,7.974-5.957h-4.775a3.131,3.131,0,0,1-3.2-3.052,3.09,3.09,0,0,1,3.2-3h7.975C644.5,767.752,645.828,769.672,645.729,772.33Z" transform="translate(-296.612 -73.846)" fill="#746e6e"/>
    <path id="Path_7" data-name="Path 7" d="M764.69,795.1c0,8.812-7.63,13.045-13.242,13.045-5.661,0-13.241-4.233-13.241-13.045,0-8.762,7.581-13.193,13.241-13.193C757.06,781.906,764.69,786.337,764.69,795.1Zm-19.4,0c0,4.135,2.855,6.793,6.153,6.793,3.249,0,6.1-2.658,6.1-6.793,0-4.282-2.855-6.941-6.1-6.941C748.15,788.158,745.3,790.816,745.3,795.1Z" transform="translate(-385.005 -95.237)" fill="#746e6e"/>
    <path id="Path_8" data-name="Path 8" d="M845,846.927a4.111,4.111,0,0,1,8.221,0,4.111,4.111,0,1,1-8.221,0Z" transform="translate(-460.399 -138.253)" fill="#746e6e"/>
    <path id="Path_9" data-name="Path 9" d="M844.465,701.317a2.488,2.488,0,0,1,2.855.208c.435-1.047,1.069-3.332,1.069-7.771,0-3.382-2.058-9.042-4.117-13.857a30.933,30.933,0,0,1-1.717-19.143L845.742,647l-4.966,14.544a25.866,25.866,0,0,0,.593,18.3c2.067,4.97,4.222,10.76,4.373,13.621A17.408,17.408,0,0,1,844.465,701.317Z" transform="translate(-456.433 0)" fill="#746e6e"/>
    <path id="Path_10" data-name="Path 10" d="M844.409,692.245c.859-.263,1.715-.543,2.581-.786a14.051,14.051,0,0,1,2.486-.42.321.321,0,0,0,.19-.113,7.236,7.236,0,0,1,7.288-2.4,7.541,7.541,0,0,1,2.226.992,26.942,26.942,0,0,1,2.934,2.1,26.034,26.034,0,0,1,2.123,1.965,24.989,24.989,0,0,1,1.928,2.232.42.42,0,0,1,.075.131l-.3-.263a3.769,3.769,0,0,0-3.448-.92c-.705.147-1.4.369-2.09.57a15.85,15.85,0,0,1-2.892.59,7.129,7.129,0,0,1-3.606-.493,8,8,0,0,1-2.016-1.321,20.476,20.476,0,0,1-2.156-2.287c-.022-.026-.04-.056-.073-.1.1-.024.183-.049.271-.067a17.317,17.317,0,0,1,2.832-.307,20.983,20.983,0,0,1,2.965.13,21.387,21.387,0,0,1,4.3.92c.309.1.617.207.934.29-.229-.092-.457-.188-.687-.277a20.256,20.256,0,0,0-7.141-1.394,20.89,20.89,0,0,0-3.521.255,20.312,20.312,0,0,0-3.091.724c-.471.152-.936.32-1.406.475a.368.368,0,0,1-.2.009c-.171-.044-.338-.1-.506-.156Z" transform="translate(-459.978 -29.161)" fill="#746e6e"/>
  </g>
</svg>
